<svg width="168.8mm" height="76.05mm" version="1.1" viewBox="0 0 168.7899 76.05185" xmlns="http://www.w3.org/2000/svg" xmlns:xlink="http://www.w3.org/1999/xlink">
 <defs>
  <marker id="b" overflow="visible" orient="auto">
   <path transform="matrix(.8 0 0 .8 10 0)" d="m0 0 5-5-17.5 5 17.5 5z" fill="#00f" fill-rule="evenodd" stroke="#00f" stroke-width="1pt"/>
  </marker>
  <marker id="c" overflow="visible" orient="auto">
   <path transform="matrix(.8 0 0 .8 10 0)" d="m0 0 5-5-17.5 5 17.5 5z" fill="#00f" fill-rule="evenodd" stroke="#00f" stroke-width="1pt"/>
  </marker>
  <marker id="d" overflow="visible" orient="auto">
   <path transform="matrix(.8 0 0 .8 10 0)" d="m0 0 5-5-17.5 5 17.5 5z" fill="#00f" fill-rule="evenodd" stroke="#00f" stroke-width="1pt"/>
  </marker>
  <linearGradient id="a">
   <stop stop-color="#a80" offset="0"/>
   <stop stop-color="#fc0" offset=".2507"/>
   <stop stop-color="#ffd42a" offset=".3613"/>
   <stop stop-color="#fd5" offset=".5089"/>
   <stop stop-color="#d4aa00" offset="1"/>
  </linearGradient>
  <linearGradient id="f" x1="-4138" x2="-4122" y1="1166" y2="1166" gradientUnits="userSpaceOnUse" xlink:href="#a"/>
  <linearGradient id="e" x1="-4138" x2="-4122" y1="1166" y2="1166" gradientTransform="translate(88.53 -10.58)" gradientUnits="userSpaceOnUse" xlink:href="#a"/>
 </defs>
 <g transform="translate(4173 -1120)">
  <rect x="-4173" y="1120" width="168.8" height="76.05" fill="#fff" fill-rule="evenodd" style="paint-order:stroke markers fill"/>
  <path d="m-4159 1176h11.67m82.7 6.179v-12.36" fill="#de8787" fill-rule="evenodd" stroke="#000" stroke-linecap="round" stroke-miterlimit="10" stroke-width="1.069" style="paint-order:stroke markers fill"/>
  <path d="m-4042 1127c22.25 0.552-22.16 1.099 0 1.655 22.25 0.553-22.16 1.1 0 1.657 22.25 0.552-22.16 1.098 0 1.655 22.25 0.552-22.16 1.099 0 1.655 22.25 0.553-22.16 1.1 0 1.657 22.25 0.552-22.16 1.098 0 1.655m-88.48-10.23c21.95 1.176-21.85 2.341 0 3.527 21.95 1.176-21.85 2.341 0 3.527 21.95 1.176-21.85 2.341 0 3.527 21.95 1.176-21.85 2.341 0 3.527 21.95 1.176-21.85 2.341 0 3.527 21.95 1.176-21.85 2.341 0 3.527" fill="none" stroke="#333" stroke-linecap="round" stroke-miterlimit="10" stroke-width=".5179" style="paint-order:stroke markers fill"/>
  <g fill-rule="evenodd" stroke-linecap="round" stroke-miterlimit="10">
   <g stroke-width=".3">
    <path d="m-4138 1169v-21.46h15.17v21.46z" fill="url(#f)" stroke="#a80" style="paint-order:stroke markers fill"/>
    <path d="m-4049 1158v-21.46h15.17v21.46z" fill="url(#e)" stroke="#a80" style="paint-order:stroke markers fill"/>
    <path d="m-4166 1173h65.08" fill="#00f" marker-start="url(#d)" stroke="#00f" style="paint-order:stroke markers fill"/>
    <path d="m-4166 1179h65.08" fill="#00f" marker-start="url(#c)" stroke="#00f" style="paint-order:stroke markers fill"/>
   </g>
   <path d="m-4034 1162h18.24v9.15h-18.24zm-46.84 31.37v-4.63h6.949v-7.559h3.806v1.654h10.2v-1.654h44.12v12.19m-58.13-63.22h24.52v40.44h-10.51v-1.558h-10.2v1.559h-3.806v-40.44m-6.949-2.998v-5.339h65.08v35.35h-18.24v-30.01h-15.37v0.941h-24.52v-0.941zm-41.69 34.84h18.24v9.15h-18.24zm-46.84 31.37v-4.63h6.949v-7.559h3.806v1.654h10.2v-1.654h44.12v12.19m-58.13-63.22h24.52v40.44h-10.51v-1.558h-10.2v1.559h-3.806v-40.44m-6.949-2.998v-5.339h65.08v35.35h-18.24v-30.01h-15.37v0.941h-24.52v-0.941z" fill="#b3b3b3" stroke="#000" stroke-width=".4" style="paint-order:stroke markers fill"/>
  </g>
  <path d="m-4009 1160c-13.91 0.111-23.03-0.129-27.09 1.466-4.261 1.675-4.684 10.84-1.729 13.09 4.436 3.387 15.67 2.35 25.99 2.573" fill="none" marker-start="url(#b)" stroke="#00f" stroke-linecap="round" stroke-miterlimit="10" stroke-width=".3" style="paint-order:stroke markers fill"/>
  <path d="m-4006 1157-0.534 0.509-10.75 0.05v-0.562zm-0.529 5.422 0.386-0.538-11.14-0.03v0.561zm-0.189 8.315-0.915 0.999-9.839 0.106v-1.102zm0 11.23 0.883-1.055-11.64-0.05v1.102zm-73.51-0.02 0.915-0.999 9.839-0.106v1.102zm0-11.76-0.883 1.055 11.64 0.05v-1.102zm-14.31-13.19-0.534 0.509-10.75 0.05v-0.562zm-0.717 13.74-0.915 0.999-9.839 0.106v-1.102zm0 11.23 0.883-1.055-11.64-0.05v1.102zm-73.51-0.02 0.915-0.999 9.839-0.106v1.102zm0-11.76-0.883 1.055 11.64 0.05v-1.102zm73.7-7.766 0.386-0.538-11.14-0.03v0.561z" color="#000000" color-rendering="auto" fill-rule="evenodd" image-rendering="auto" shape-rendering="auto" style="font-feature-settings:normal;font-variant-alternates:normal;font-variant-caps:normal;font-variant-ligatures:normal;font-variant-numeric:normal;font-variant-position:normal;isolation:auto;mix-blend-mode:normal;paint-order:stroke markers fill;shape-padding:0;text-decoration-color:#000000;text-decoration-line:none;text-decoration-style:solid;text-indent:0;text-orientation:mixed;text-transform:none;white-space:normal"/>
  <g fill="#000000" font-family="'Times New Roman'" font-size="9px" letter-spacing="0px" stroke-dashoffset="42.85" stroke-linejoin="round" stroke-width=".2" text-anchor="middle" word-spacing="0px">
   <text x="-4167.072" y="1137.314" style="font-feature-settings:normal;font-variant-alternates:normal;font-variant-caps:normal;font-variant-ligatures:normal;font-variant-numeric:normal;font-variant-position:normal;line-height:8.3399992px;paint-order:stroke fill markers;shape-padding:0;text-decoration-color:#000000;text-decoration-line:none;text-decoration-style:solid;text-indent:0;text-orientation:mixed;text-transform:none;white-space:normal" xml:space="preserve"><tspan x="-4167.072" y="1137.314" font-size="9px" stroke-width=".2">1</tspan></text>
   <text x="-4096.928" y="1127.676" style="font-feature-settings:normal;font-variant-alternates:normal;font-variant-caps:normal;font-variant-ligatures:normal;font-variant-numeric:normal;font-variant-position:normal;line-height:8.3399992px;paint-order:stroke fill markers;shape-padding:0;text-decoration-color:#000000;text-decoration-line:none;text-decoration-style:solid;text-indent:0;text-orientation:mixed;text-transform:none;white-space:normal" xml:space="preserve"><tspan x="-4096.928" y="1127.676" font-size="9px" stroke-width=".2">2</tspan></text>
   <text x="-4091.709" y="1139.094" style="font-feature-settings:normal;font-variant-alternates:normal;font-variant-caps:normal;font-variant-ligatures:normal;font-variant-numeric:normal;font-variant-position:normal;line-height:8.3399992px;paint-order:stroke fill markers;shape-padding:0;text-decoration-color:#000000;text-decoration-line:none;text-decoration-style:solid;text-indent:0;text-orientation:mixed;text-transform:none;white-space:normal" xml:space="preserve"><tspan x="-4091.709" y="1139.094" font-size="9px" stroke-width=".2">3</tspan></text>
   <text x="-4167.157" y="1152.672" style="font-feature-settings:normal;font-variant-alternates:normal;font-variant-caps:normal;font-variant-ligatures:normal;font-variant-numeric:normal;font-variant-position:normal;line-height:8.3399992px;paint-order:stroke fill markers;shape-padding:0;text-decoration-color:#000000;text-decoration-line:none;text-decoration-style:solid;text-indent:0;text-orientation:mixed;text-transform:none;white-space:normal" xml:space="preserve"><tspan x="-4167.157" y="1152.672" font-size="9px" stroke-width=".2">4</tspan></text>
   <text x="-4094.569" y="1151.435" style="font-feature-settings:normal;font-variant-alternates:normal;font-variant-caps:normal;font-variant-ligatures:normal;font-variant-numeric:normal;font-variant-position:normal;line-height:8.3399992px;paint-order:stroke fill markers;shape-padding:0;text-decoration-color:#000000;text-decoration-line:none;text-decoration-style:solid;text-indent:0;text-orientation:mixed;text-transform:none;white-space:normal" xml:space="preserve"><tspan x="-4094.569" y="1151.435" font-size="9px" stroke-width=".2">5</tspan></text>
   <text x="-4091.001" y="1164.981" style="font-feature-settings:normal;font-variant-alternates:normal;font-variant-caps:normal;font-variant-ligatures:normal;font-variant-numeric:normal;font-variant-position:normal;line-height:8.3399992px;paint-order:stroke fill markers;shape-padding:0;text-decoration-color:#000000;text-decoration-line:none;text-decoration-style:solid;text-indent:0;text-orientation:mixed;text-transform:none;white-space:normal" xml:space="preserve"><tspan x="-4091.001" y="1164.981" font-size="9px" stroke-width=".2">6</tspan></text>
   <text x="-4094.49" y="1190.257" style="font-feature-settings:normal;font-variant-alternates:normal;font-variant-caps:normal;font-variant-ligatures:normal;font-variant-numeric:normal;font-variant-position:normal;line-height:8.3399992px;paint-order:stroke fill markers;shape-padding:0;text-decoration-color:#000000;text-decoration-line:none;text-decoration-style:solid;text-indent:0;text-orientation:mixed;text-transform:none;white-space:normal" xml:space="preserve"><tspan x="-4094.49" y="1190.257" font-size="9px" stroke-width=".2">7</tspan></text>
   <text x="-4079.901" y="1159.564" style="font-feature-settings:normal;font-variant-alternates:normal;font-variant-caps:normal;font-variant-ligatures:normal;font-variant-numeric:normal;font-variant-position:normal;line-height:8.3399992px;paint-order:stroke fill markers;shape-padding:0;text-decoration-color:#000000;text-decoration-line:none;text-decoration-style:solid;text-indent:0;text-orientation:mixed;text-transform:none;white-space:normal" xml:space="preserve"><tspan x="-4079.901" y="1159.564" font-size="9px" stroke-width=".2">8</tspan></text>
  </g>
  <path d="m-4127 1153 31.66-14.88m-7.941 40.35 5.481 5.246m32.78-9.092-12.37-15.38m-22.92 11.24 6.635-5.809m-33.88-30.94 27.78-7.562m-53.77 48.66-11.82-22.83m8.035-7.688-8.186-8.169m158.4 25.98c2.22-2.687-1.428-3.104 0.374-5.332m-0.563 24.84c3.925-3.167-4.232-7.211-0.155-11.06m-88.19-8.454c2.22-2.687-1.428-3.104 0.374-5.332m-0.562 24.84c3.925-3.167-4.232-7.211-0.155-11.06m-73.2-0.567c-3.925 3.167 4.483 7.459 0.406 11.3m88.13-11.3c-3.925 3.167 4.483 7.459 0.406 11.3m-20.9-24.57 3.714-4.943m-55.07 24.02c0 0.548-0.444 0.992-0.992 0.992s-0.992-0.444-0.992-0.992 0.444-0.992 0.992-0.992 0.992 0.444 0.992 0.992zm87.54-1.201c0.548 0 0.992 0.538 0.992 1.201s-0.444 1.201-0.992 1.201-0.992-0.538-0.992-1.201 0.444-1.201 0.992-1.201z" fill="#fff" fill-rule="evenodd" stroke="#000" stroke-width=".2646px"/>
 </g>
</svg>
